<?xml version="1.0" standalone="no"?>
<!DOCTYPE svg PUBLIC "-//W3C//DTD SVG 20010904//EN"
 "http://www.w3.org/TR/2001/REC-SVG-20010904/DTD/svg10.dtd">
<svg version="1.0" xmlns="http://www.w3.org/2000/svg"
 width="769.000000pt" height="768.000000pt" viewBox="0 0 769.000000 768.000000"
 preserveAspectRatio="xMidYMid meet">

<g transform="translate(0.000000,768.000000) scale(0.100000,-0.100000)"
fill="#000000" stroke="none">
<path d="M3655 7574 c-338 -27 -517 -52 -710 -99 -958 -235 -1791 -852 -2315
-1715 -530 -873 -675 -1960 -390 -2933 117 -401 328 -823 573 -1149 430 -573
996 -1005 1651 -1262 129 -51 385 -126 428 -126 15 0 62 -11 105 -25 43 -14
86 -25 96 -25 9 0 17 -4 17 -8 0 -13 108 -37 155 -35 22 0 113 6 201 12 183
12 249 5 484 -49 276 -63 327 -73 410 -74 81 -1 89 1 145 34 46 27 67 48 90
88 33 57 27 54 195 93 145 34 427 129 589 198 71 30 279 136 386 196 147 83
405 266 546 385 96 82 316 305 420 427 495 576 795 1296 850 2039 14 194 6
564 -16 754 -73 616 -321 1241 -690 1739 -621 841 -1528 1381 -2535 1512 -149
19 -558 33 -685 23z m557 -99 c1030 -104 1957 -629 2573 -1459 372 -502 610
-1092 689 -1711 113 -886 -100 -1759 -606 -2483 -539 -771 -1390 -1315 -2323
-1488 -118 -21 -298 -15 -405 16 -163 46 -300 112 -300 144 0 17 43 43 130 78
46 19 92 29 155 33 452 30 967 182 1381 406 154 83 380 234 519 345 128 103
350 321 452 444 338 406 571 884 677 1386 53 253 61 338 61 659 -1 318 -9 404
-60 660 -202 1000 -841 1850 -1748 2325 -353 185 -699 294 -1132 357 -172 25
-688 25 -860 0 -652 -95 -1190 -323 -1680 -713 -126 -101 -356 -322 -455 -439
-425 -500 -676 -1058 -782 -1735 -19 -128 -22 -182 -22 -460 0 -272 3 -333 21
-450 95 -606 309 -1102 679 -1580 110 -142 372 -406 519 -524 149 -119 398
-283 457 -301 167 -49 557 -41 718 16 64 23 705 153 830 168 178 23 271 11
449 -54 109 -41 115 -41 140 -16 40 40 267 41 373 1 69 -26 110 -69 106 -112
-3 -28 -10 -33 -104 -68 -55 -21 -150 -48 -211 -59 -172 -33 -247 -63 -378
-151 -144 -97 -234 -131 -454 -171 -64 -11 -124 -25 -135 -31 -18 -10 -19 -11
-2 -23 9 -7 45 -16 79 -20 133 -14 188 -29 351 -96 238 -99 287 -111 478 -113
l157 -1 -17 -29 c-26 -44 -94 -76 -161 -76 -65 0 -212 30 -436 90 -205 54
-299 61 -444 31 -124 -25 -198 -27 -272 -5 -62 18 -220 99 -329 169 -100 64
-156 88 -187 80 -21 -5 -23 -8 -12 -21 7 -9 39 -29 70 -45 124 -62 67 -67
-105 -8 -832 283 -1516 832 -1969 1582 -266 439 -441 981 -488 1506 -17 195
-6 626 20 803 123 826 479 1538 1052 2105 779 770 1849 1147 2941 1038z m28
-349 c616 -75 1189 -317 1685 -712 141 -113 386 -358 499 -499 393 -494 626
-1042 712 -1680 25 -182 25 -609 0 -784 -83 -595 -301 -1103 -669 -1561 -484
-603 -1210 -1034 -1977 -1174 -109 -20 -322 -47 -327 -42 -7 6 90 63 127 74
19 6 103 25 185 41 1378 280 2406 1453 2493 2847 96 1519 -913 2884 -2398
3244 -260 63 -372 74 -725 74 -281 0 -337 -2 -460 -22 -774 -122 -1454 -506
-1950 -1103 -592 -711 -838 -1665 -664 -2569 115 -593 430 -1170 870 -1595
249 -239 474 -398 797 -561 l163 -82 -57 -8 c-78 -9 -243 1 -330 21 -74 17
-185 81 -359 208 -805 588 -1290 1504 -1322 2497 -30 930 341 1836 1016 2482
554 531 1256 849 2026 918 138 12 514 4 665 -14z m-65 -271 c174 -20 323 -48
480 -91 728 -200 1369 -680 1774 -1329 177 -284 324 -652 390 -976 47 -229 56
-323 56 -619 0 -299 -6 -373 -51 -595 -186 -926 -802 -1716 -1658 -2126 -146
-69 -305 -132 -321 -125 -7 2 -15 18 -18 35 -14 68 -118 137 -242 160 -85 16
-136 14 -262 -10 l-113 -21 -136 42 c-133 41 -139 42 -243 37 -118 -6 -171
-14 -541 -80 -349 -63 -402 -69 -521 -65 l-104 3 -157 77 c-349 170 -599 349
-859 615 -439 449 -709 986 -810 1609 -26 164 -37 546 -20 720 95 970 633
1825 1461 2324 366 221 803 368 1230 415 165 18 508 18 665 0z"/>
<path d="M3754 1040 c-39 -11 -124 -26 -189 -35 -65 -8 -121 -18 -124 -21 -11
-11 25 -24 69 -24 58 -1 103 -17 169 -63 43 -30 62 -37 100 -37 55 0 136 19
209 49 42 17 60 19 92 12 42 -9 65 3 39 20 -60 41 -151 91 -188 104 -56 19
-89 18 -177 -5z m205 -54 c49 -26 49 -26 -31 -59 l-38 -16 0 50 c0 57 5 58 69
25z m-209 -11 c0 -9 7 -30 16 -47 15 -29 15 -30 -1 -24 -9 3 -20 6 -24 6 -5 0
-28 14 -52 32 l-44 32 30 7 c53 12 75 10 75 -6z"/>
<path d="M4450 1048 c0 -9 18 -20 43 -28 23 -7 59 -21 79 -31 21 -11 50 -19
66 -19 31 0 58 22 47 39 -8 15 -98 38 -172 46 -51 6 -63 4 -63 -7z"/>
</g>
</svg>
